HIERARCHY
ROOT Hips
{
    OFFSET 0.000000 0.000000 0.000000
    CHANNELS 6 Xposition Yposition Zposition Zrotation Xrotation Yrotation
    JOINT Spine
    {
        OFFSET -0.000000 14.517291 0.000000
        CHANNELS 3 Zrotation Xrotation Yrotation
        JOINT Spine1
        {
            OFFSET -0.000000 37.558300 0.000000
            CHANNELS 3 Zrotation Xrotation Yrotation
            JOINT Neck
            {
                OFFSET -0.000000 37.404057 3.400369
                CHANNELS 3 Zrotation Xrotation Yrotation
                JOINT Head
                {
                    OFFSET -0.000000 24.785618 -3.540803
                    CHANNELS 3 Zrotation Xrotation Yrotation
                    End Site
                    {
                        OFFSET -0.000000 35.408028 0.000000
                    }
                }
            }
            JOINT LeftShoulder
            {
                OFFSET 6.992933 33.973492 -0.192664
                CHANNELS 3 Zrotation Xrotation Yrotation
                JOINT LeftArm
                {
                    OFFSET 21.527611 0.000000 0.000000
                    CHANNELS 3 Zrotation Xrotation Yrotation
                    JOINT LeftForeArm
                    {
                        OFFSET 56.353916 0.000000 0.000000
                        CHANNELS 3 Zrotation Xrotation Yrotation
                        JOINT LeftHand
                        {
                            OFFSET 47.774071 0.000000 0.000000
                            CHANNELS 3 Zrotation Xrotation Yrotation
                            End Site
                            {
                                OFFSET 26.556021 0.000000 0.000000
                            }
                        }
                    }
                }
            }
            JOINT RightShoulder
            {
                OFFSET -7.065357 33.973492 -0.192664
                CHANNELS 3 Zrotation Xrotation Yrotation
                JOINT RightArm
                {
                    OFFSET -21.527611 0.000000 0.000000
                    CHANNELS 3 Zrotation Xrotation Yrotation
                    JOINT RightForeArm
                    {
                        OFFSET -56.353916 0.000000 0.000000
                        CHANNELS 3 Zrotation Xrotation Yrotation
                        JOINT RightHand
                        {
                            OFFSET -47.774071 0.000000 0.000000
                            CHANNELS 3 Zrotation Xrotation Yrotation
                            End Site
                            {
                                OFFSET -26.556021 0.000000 0.000000
                            }
                        }
                    }
                }
            }
        }
    }
    JOINT LeftUpLeg
    {
        OFFSET 17.704014 0.000000 0.000000
        CHANNELS 3 Zrotation Xrotation Yrotation
        JOINT LeftLeg
        {
            OFFSET -0.000000 -81.181816 0.000000
            CHANNELS 3 Zrotation Xrotation Yrotation
            JOINT LeftFoot
            {
                OFFSET -0.000000 -62.821102 0.000000
                CHANNELS 3 Zrotation Xrotation Yrotation
                JOINT LeftToeBase
                {
                    OFFSET -0.000000 -11.507608 26.556021
                    CHANNELS 3 Zrotation Xrotation Yrotation
                    End Site
                    {
                        OFFSET -0.000000 0.000000 7.081605
                    }
                }
            }
        }
    }
    JOINT RightUpLeg
    {
        OFFSET -17.704014 0.000000 0.000000
        CHANNELS 3 Zrotation Xrotation Yrotation
        JOINT RightLeg
        {
            OFFSET -0.000000 -81.181816 0.000000
            CHANNELS 3 Zrotation Xrotation Yrotation
            JOINT RightFoot
            {
                OFFSET -0.000000 -62.821102 0.000000
                CHANNELS 3 Zrotation Xrotation Yrotation
                JOINT RightToeBase
                {
                    OFFSET -0.000000 -11.507608 26.556021
                    CHANNELS 3 Zrotation Xrotation Yrotation
                    End Site
                    {
                        OFFSET -0.000000 0.000000 7.081605
                    }
                }
            }
        }
    }
}
MOTION
Frames:    9
Frame Time:    0.008333
24.613432    155.976242    -36.350498    1.055834    -0.862582    -41.456688    3.535009    -1.173594    4.026098    -1.074159    1.803988    1.345999    15.202534    -2.806566    13.851925    -7.515899    10.124969    11.374385    4.279710    6.339902    -15.699277    -24.922844    -3.168769    -48.667027    25.102268    -44.372353    -50.843075    -19.994520    -30.131638    -32.118904    -8.237902    3.334612    3.251440    30.191797    9.902353    84.972572    15.745038    11.370725    113.625885    9.686452    -11.125192    22.758966    16.783810    -20.121611    2.728826    -11.283191    17.865854    -4.565505    -8.854872    1.135746    37.648449    0.000000    0.000000    0.000000    -15.035698    2.238328    -8.495110    6.892407    28.408550    -2.729390    4.898032    -22.379446    -17.789368    0.000000    0.000000    0.000000    
24.633709    155.969315    -36.357151    1.053792    -0.855438    -41.450653    3.532172    -1.175945    4.015011    -1.070774    1.803008    1.342223    15.220296    -2.799648    13.853257    -7.538699    10.118771    11.371959    4.289097    6.345150    -15.705470    -24.920881    -3.171640    -48.669827    25.112516    -44.372437    -50.827454    -19.985146    -30.136086    -32.102165    -8.218945    3.338809    3.242528    30.184004    9.917586    84.972206    15.731361    11.337732    113.631004    9.687313    -11.136688    22.780878    16.791220    -20.143188    2.737867    -11.295236    17.880671    -4.555575    -8.846175    1.137126    37.644974    0.000000    0.000000    0.000000    -15.036449    2.231492    -8.501157    6.904780    28.410643    -2.709536    4.872551    -22.393097    -17.817142    0.000000    0.000000    0.000000    
24.655092    155.963806    -36.363010    1.051633    -0.850524    -41.449097    3.517660    -1.176193    4.009567    -1.042326    1.803859    1.340042    15.183933    -2.809711    13.847805    -7.496632    10.117904    11.373484    4.282213    6.346554    -15.715869    -24.909853    -3.161312    -48.660992    25.147161    -44.368702    -50.793983    -20.006203    -30.117056    -32.114952    -8.214224    3.343185    3.227368    30.185919    9.925100    84.975716    15.729053    11.322573    113.635941    9.693678    -11.150476    22.767700    16.798174    -20.165218    2.766383    -11.297250    17.911867    -4.586127    -8.836845    1.138952    37.643639    0.000000    0.000000    0.000000    -15.040716    2.219991    -8.497705    6.920170    28.418724    -2.715219    4.856224    -22.394526    -17.831034    0.000000    0.000000    0.000000    
24.675676    155.958313    -36.367352    1.047602    -0.844236    -41.444256    3.513849    -1.173295    4.002410    -1.039276    1.800400    1.337598    15.194507    -2.815910    13.847195    -7.495805    10.121972    11.370441    4.303342    6.361304    -15.722270    -24.917179    -3.181491    -48.667305    25.103727    -44.375908    -50.821331    -19.994144    -30.141527    -32.113052    -8.192586    3.343215    3.207674    30.198057    9.928895    84.968506    15.733898    11.325624    113.636719    9.731812    -11.147437    22.774931    16.809341    -20.185894    2.774602    -11.311474    17.935629    -4.595775    -8.844341    1.126863    37.649006    0.000000    0.000000    0.000000    -15.042621    2.214599    -8.493860    6.936586    28.419579    -2.716034    4.856876    -22.408325    -17.830690    0.000000    0.000000    0.000000    
24.692291    155.951645    -36.370808    1.037801    -0.838255    -41.445724    3.509411    -1.173574    3.992633    -1.019390    1.803560    1.334073    15.189516    -2.817197    13.847428    -7.501566    10.126891    11.371413    4.301254    6.361453    -15.723800    -24.913702    -3.174910    -48.658062    25.125679    -44.363266    -50.795963    -19.992693    -30.121674    -32.121815    -8.194306    3.332450    3.210110    30.227962    9.934716    84.949112    15.759715    11.350831    113.631378    9.716394    -11.162921    22.789373    16.823708    -20.196861    2.800341    -11.316257    17.954943    -4.599510    -8.814372    1.129121    37.629528    0.000000    0.000000    0.000000    -15.037385    2.211174    -8.495061    6.939416    28.422134    -2.695635    4.827904    -22.412666    -17.846006    0.000000    0.000000    0.000000    
24.715736    155.947510    -36.375637    1.032798    -0.836375    -41.451504    3.500373    -1.166417    3.990832    -1.005657    1.803763    1.333356    15.202460    -2.817186    13.845936    -7.529725    10.117942    11.365495    4.307878    6.361553    -15.731297    -24.912144    -3.171636    -48.656082    25.139404    -44.362896    -50.782333    -19.979631    -30.126692    -32.092571    -8.179699    3.324216    3.195566    30.221104    9.945670    84.947960    15.752966    11.332882    113.636101    9.702363    -11.178203    22.751146    16.831007    -20.208080    2.819847    -11.322827    17.977209    -4.630648    -8.814663    1.113495    37.650082    0.000000    0.000000    0.000000    -15.042709    2.200061    -8.487308    6.950924    28.433886    -2.666393    4.815795    -22.416716    -17.874208    0.000000    0.000000    0.000000    
24.735264    155.943604    -36.377674    1.024713    -0.835672    -41.461170    3.499559    -1.163722    3.985679    -1.002059    1.811688    1.331672    15.207728    -2.819638    13.845331    -7.539068    10.117978    11.363118    4.312314    6.358087    -15.732954    -24.906132    -3.164086    -48.645061    25.143848    -44.367748    -50.769184    -19.982058    -30.132875    -32.094547    -8.170437    3.327595    3.187822    30.209396    9.950292    84.949959    15.731079    11.290625    113.641357    9.720336    -11.184192    22.752241    16.840837    -20.212749    2.835770    -11.329717    17.992716    -4.631142    -8.797063    1.114610    37.639462    0.000000    0.000000    0.000000    -15.046763    2.194262    -8.468479    6.965905    28.436447    -2.685341    4.816829    -22.417339    -17.856319    0.000000    0.000000    0.000000    
24.758539    155.941986    -36.381069    1.025472    -0.830356    -41.470184    3.489887    -1.156062    3.988511    -0.994819    1.791286    1.332424    15.206561    -2.809286    13.839630    -7.532100    10.112068    11.358738    4.317517    6.365618    -15.745621    -24.916290    -3.172389    -48.635181    25.119268    -44.359276    -50.785137    -19.979631    -30.132156    -32.081936    -8.150756    3.326816    3.178150    30.233149    9.948921    84.921875    15.746116    11.314767    113.634727    9.728946    -11.178251    22.768608    16.843256    -20.225000    2.853304    -11.332062    18.003181    -4.631390    -8.793529    1.115964    37.642822    0.000000    0.000000    0.000000    -15.056093    2.177692    -8.462433    6.977578    28.444920    -2.673142    4.809286    -22.414076    -17.864437    0.000000    0.000000    0.000000    
24.779411    155.939606    -36.385040    1.019800    -0.825808    -41.482178    3.478333    -1.151346    3.990241    -0.968751    1.786362    1.332635    15.208782    -2.802148    13.839040    -7.554709    10.108873    11.357291    4.312165    6.367774    -15.746061    -24.928143    -3.179362    -48.639328    25.103306    -44.343437    -50.779957    -19.961685    -30.124439    -32.090199    -8.152599    3.328215    3.165239    30.234255    9.951962    84.910698    15.723641    11.279877    113.630928    9.749100    -11.169656    22.788300    16.853941    -20.232306    2.871705    -11.338607    18.016474    -4.631008    -8.778081    1.117486    37.642036    0.000000    0.000000    0.000000    -15.059226    2.164907    -8.443196    6.990488    28.451286    -2.677121    4.794414    -22.408085    -17.866220    0.000000    0.000000    0.000000    
